<svg id="f0ec0377-d0c6-40e8-84a1-e37a6734ab17" data-name="ef03695b-290d-4403-813b-0e0f1448c847" xmlns="http://www.w3.org/2000/svg" viewBox="0 0 37 30.59"><path id="b53aba68-9628-4f38-af28-3369bb56d10c" data-name="ecbee0d4-dd17-4c0b-a05a-c7d8b93ce29a" d="M37,.67a1,1,0,0,0-.5-.6A2.61,2.61,0,0,0,35,.17S2.5,11.77.7,13.07c-.4.3-.5.4-.61.6a1.06,1.06,0,0,0,.61,1.4L9,17.77h.4c1.91-1.2,19.16-12.1,20.16-12.4.1,0,.3,0,.2.1-.4,1.4-15.34,14.7-15.34,14.7a.35.35,0,0,0-.1.2h0l-.81,8.3s-.3,2.5,2.21,0a54.51,54.51,0,0,1,4.41-4c2.91,2,6,4.2,7.32,5.3a2.26,2.26,0,0,0,1.71.6,1.75,1.75,0,0,0,1.6-1.4s5.92-23.7,6.12-27v-.7A2.2,2.2,0,0,0,37,.67Z" style="fill:#198652"/></svg>