<?xml version="1.0" encoding="UTF-8"?>
<svg id="Layer_1" data-name="Layer 1" xmlns="http://www.w3.org/2000/svg" viewBox="0 0 44 44">
  <defs>
    <style>
      .cls-1 {
        fill: #198657;
      }
    </style>
  </defs>
  <path class="cls-1" d="M20.6,.08C11.27,.65,3.26,7.16,.77,16.18c-1.03,3.77-1.02,7.93,.02,11.74,1.73,6.31,6.45,11.7,12.48,14.29,5.96,2.55,12.76,2.37,18.48-.48,4.46-2.23,7.75-5.52,9.98-9.97,2.84-5.67,3.04-12.46,.53-18.37-.22-.51-.42-.95-.45-.98-.04-.04-4.23,5.78-9.33,12.9-5.21,7.28-9.4,13.06-9.57,13.19-.26,.2-.4,.24-.84,.24s-.59-.04-.89-.26c-.23-.17-2.52-3.08-6.41-8.16l-6.06-7.9-2.53-.04-2.54-.04,1.32-1.54,1.32-1.54,4.93-.02,4.94-.02,2.95,3.82c2.89,3.73,2.96,3.82,3.1,3.63,.08-.1,3.46-4.81,7.5-10.45l7.36-10.26-.44-.39c-.71-.63-2.31-1.82-3.18-2.35C30.38,1.36,26.97,.3,23.24,.07c-.75-.04-1.39-.08-1.45-.07-.04,0-.58,.04-1.19,.08Z"/>
</svg>