<?xml version="1.0" encoding="UTF-8"?>
<svg id="Layer_1" data-name="Layer 1" xmlns="http://www.w3.org/2000/svg" viewBox="0 0 500 500">
  <defs>
    <style>
      .cls-1 {
        fill: #198657;
      }
    </style>
  </defs>
  <path class="cls-1" d="M234,1.1C128.4,7.5,37.6,81.4,9.4,183.7c-11.7,42.7-11.6,89.9,.2,133.1,19.6,71.5,73.1,132.7,141.4,162,67.5,28.9,144.6,26.9,209.3-5.4,50.5-25.3,87.8-62.6,113-113.1,32.2-64.3,34.4-141.3,6-208.3-2.5-5.8-4.8-10.8-5.1-11.1-.4-.4-47.9,65.5-105.7,146.3-59,82.5-106.5,148.1-108.4,149.6-2.9,2.3-4.5,2.7-9.5,2.7s-6.7-.5-10.1-2.9c-2.6-1.9-28.5-34.9-72.6-92.5l-68.6-89.6-28.7-.5-28.8-.5,14.9-17.5,14.9-17.5,55.9-.2,56-.2,33.4,43.3c32.7,42.3,33.5,43.3,35.1,41.2,.9-1.1,39.2-54.5,85-118.5l83.4-116.4-5-4.4c-8-7.1-26.2-20.6-36-26.6C344.8,15.6,306.2,3.6,263.9,1c-8.5-.5-15.8-.9-16.4-.8-.5,0-6.6,.4-13.5,.9Z"/>
</svg>